<svg xmlns="http://www.w3.org/2000/svg" width="31.333" height="35.012" viewBox="0 0 31.333 35.012">
  <g id="Group_19" data-name="Group 19" transform="translate(-17.807 1358.026)">
    <path id="Path_21" data-name="Path 21" d="M31.246-1280.517a15.067,15.067,0,0,1-4.255-.572,1.729,1.729,0,0,1-1.015-2.515h0a12.4,12.4,0,0,0,6.966,1.058,15.794,15.794,0,0,0,4.017-1.22l.327-.137a15.483,15.483,0,0,1,5.65-1.133,13.716,13.716,0,0,1,6.7,1.654,1.735,1.735,0,0,1,.424,2.658h0a10.82,10.82,0,0,0-7.12-2.376,13.433,13.433,0,0,0-4.905.984l-.32.135a17.686,17.686,0,0,1-4.482,1.35A15.508,15.508,0,0,1,31.246-1280.517Z" transform="translate(-4.623 -42.498)" fill="#fff"/>
    <path id="Path_22" data-name="Path 22" d="M49.14-1348.8v18.617a.188.188,0,0,1-.312.142l-.521-.452-.771-.671a8.362,8.362,0,0,0-.952-.706q-.213-.14-.445-.271c-.161-.094-.329-.187-.5-.274a14.486,14.486,0,0,0-4.852-1.593,16.485,16.485,0,0,0-1.809-.165l-.426-.018a.189.189,0,0,1-.155-.094l-4.694-8.136a.189.189,0,0,0-.331.008l-3.527,6.876a.188.188,0,0,0,.216.268c.483-.132,1.341-.352,2.307-.532a3.36,3.36,0,0,1,3.532,1.629h0c-2.921-.052-8.012,1.426-9.508,1.881a.188.188,0,0,1-.221-.266l5.413-10.593s0-.006-.007-.01l.648-1.265.445-.864.6-1.169a.189.189,0,0,1,.331-.008l5.588,9.677.36.624a.19.19,0,0,0,.15.093c.242.018.477.038.706.061a15.945,15.945,0,0,1,4.248,1.019c.129.052.258.1.387.162.5.209.99.445,1.481.693.023.013.045.023.068.036q.172.088.338.18a.189.189,0,0,0,.282-.163v-13.605a.189.189,0,0,0-.093-.163l-.526-.307-13.037-7.6a.189.189,0,0,0-.19,0l-1.179.69-12.342,7.213a.188.188,0,0,0-.094.163v16.179a.193.193,0,0,0,.066.145,8.59,8.59,0,0,0,4.822,2.01,14.046,14.046,0,0,0,3.032-.048,24.008,24.008,0,0,0,4.729-1.274l.409-.142a18.335,18.335,0,0,1,3.849-.993c.129-.013.258-.026.387-.036a14,14,0,0,1,7.593,1.393c.113.058.247.134.393.221a1.738,1.738,0,0,1,.412,2.644h0a6.771,6.771,0,0,0-.61-.481,8.351,8.351,0,0,0-.981-.609,12.1,12.1,0,0,0-6.81-1.226c-.058,0-.116.01-.174.016a16.9,16.9,0,0,0-3.429.9l-.4.139a25.473,25.473,0,0,1-5.168,1.374,16.894,16.894,0,0,1-3.284.068,10.384,10.384,0,0,1-6.361-2.787c-.039-.039-.081-.078-.119-.116l-.234-.229a.189.189,0,0,1-.057-.135V-1348.8a.188.188,0,0,1,.094-.162l14.278-8.346,1.179-.689a.188.188,0,0,1,.19,0l15.5,9.036A.189.189,0,0,1,49.14-1348.8Z" fill="#fff"/>
  </g>
</svg>
