<?xml version="1.0" standalone="no"?>
<!DOCTYPE svg PUBLIC "-//W3C//DTD SVG 20010904//EN"
 "http://www.w3.org/TR/2001/REC-SVG-20010904/DTD/svg10.dtd">
<svg version="1.0" xmlns="http://www.w3.org/2000/svg"
 width="720.000000pt" height="720.000000pt" viewBox="0 0 720.000000 720.000000"
 preserveAspectRatio="xMidYMid meet">
<metadata>
Created by potrace 1.11, written by Peter Selinger 2001-2013
</metadata>
<g transform="translate(0.000000,720.000000) scale(0.100000,-0.100000)"
fill="#000000" stroke="none">
<path d="M3405 7085 c-99 -57 -185 -109 -192 -115 -7 -5 -14 -10 -16 -10 -7 0
-156 -87 -172 -100 -8 -7 -15 -9 -15 -4 0 5 -4 4 -8 -1 -6 -9 -103 -67 -312
-188 -19 -11 -48 -28 -65 -39 -16 -10 -38 -21 -47 -24 -10 -4 -18 -10 -18 -15
0 -5 -5 -9 -10 -9 -6 0 -156 -85 -334 -190 -179 -104 -329 -190 -335 -190 -6
0 -11 -3 -11 -7 0 -5 -26 -21 -58 -38 -31 -16 -59 -33 -62 -36 -3 -3 -63 -39
-135 -81 -71 -41 -208 -120 -304 -176 -96 -56 -178 -102 -182 -102 -5 0 -9 -4
-9 -10 0 -5 -4 -10 -9 -10 -5 0 -47 -22 -93 -49 -46 -26 -132 -77 -193 -112
-60 -35 -113 -68 -117 -74 -4 -5 -8 -6 -8 -1 0 5 -8 2 -17 -6 -10 -9 -38 -27
-63 -40 -102 -57 -225 -132 -232 -142 -4 -6 -8 -854 -8 -1883 l0 -1873 42 -42
c46 -46 97 -91 167 -148 24 -19 48 -40 55 -45 6 -6 54 -39 106 -74 133 -87
342 -189 490 -238 156 -51 162 -53 290 -76 163 -31 261 -39 475 -40 169 -1
345 7 425 19 30 4 72 12 220 38 14 2 25 5 25 6 0 1 11 3 25 5 118 16 481 117
688 191 70 25 132 47 139 48 7 1 16 5 19 9 4 4 14 7 23 7 9 0 29 7 45 15 48
25 393 127 478 140 13 2 46 9 73 15 96 20 148 27 270 35 87 6 313 6 365 0 25
-2 72 -8 105 -11 33 -4 71 -8 85 -10 14 -1 25 -3 25 -4 0 -1 14 -4 30 -6 17
-2 50 -9 75 -15 25 -6 53 -12 62 -14 26 -5 141 -36 158 -42 8 -4 20 -7 25 -8
28 -7 143 -49 184 -67 211 -93 315 -152 438 -249 35 -27 67 -49 73 -49 17 0
60 79 76 141 22 85 11 178 -31 259 -19 36 -119 140 -135 140 -6 0 -27 10 -48
23 -20 13 -66 36 -102 51 -36 16 -83 37 -105 47 -37 16 -176 68 -200 73 -5 2
-17 5 -25 9 -56 20 -245 69 -320 82 -19 3 -44 8 -55 10 -185 32 -247 37 -490
38 -191 1 -356 -7 -395 -18 -8 -2 -35 -7 -60 -10 -67 -9 -262 -52 -365 -80
-122 -33 -404 -127 -480 -160 -16 -7 -68 -25 -115 -40 -47 -14 -92 -29 -100
-32 -18 -8 -15 -7 -70 -22 -25 -7 -45 -13 -45 -12 0 0 -22 -7 -50 -15 -56 -18
-108 -32 -145 -40 -13 -3 -60 -13 -105 -24 -44 -10 -97 -21 -119 -24 -21 -4
-41 -8 -45 -10 -3 -2 -26 -7 -51 -10 -25 -3 -55 -8 -67 -10 -137 -27 -553 -27
-725 -1 -13 2 -40 6 -60 9 -137 21 -310 78 -464 151 -108 52 -285 164 -353
224 l-34 29 0 1675 c0 920 3 1679 7 1685 3 6 41 30 82 54 42 24 83 48 92 53
10 6 60 34 112 64 52 30 122 71 155 91 33 20 121 72 195 115 74 43 194 113
265 155 72 42 137 79 145 83 8 4 29 16 45 27 17 11 39 24 50 29 11 6 49 28 85
50 36 22 88 52 115 66 28 15 53 32 56 37 3 5 9 9 13 9 3 -1 16 5 29 13 12 7
41 24 64 37 23 13 88 51 145 84 57 33 109 61 116 63 6 2 12 8 12 13 0 5 4 9
10 9 7 0 206 113 280 160 26 16 165 95 175 99 5 2 40 24 78 48 37 23 69 43 72
43 4 0 69 38 155 90 8 5 70 41 138 80 l123 72 52 -26 c56 -29 195 -109 212
-123 6 -4 28 -17 50 -29 22 -12 80 -44 128 -73 49 -28 92 -51 97 -51 5 0 10
-4 12 -9 2 -4 37 -27 78 -50 41 -23 93 -53 115 -67 22 -14 51 -30 65 -37 14
-7 65 -36 113 -65 48 -28 92 -52 97 -52 6 0 10 -4 10 -9 0 -5 8 -11 18 -15 9
-3 31 -14 47 -23 48 -29 157 -93 190 -111 17 -9 32 -19 35 -22 3 -3 21 -13 40
-24 57 -31 101 -55 186 -107 45 -27 84 -49 87 -49 3 0 26 -13 50 -30 25 -16
49 -30 55 -30 6 0 12 -3 14 -7 2 -5 19 -16 38 -26 19 -9 49 -26 65 -37 17 -11
41 -25 55 -32 14 -7 27 -15 30 -18 3 -3 19 -12 35 -21 27 -14 414 -239 483
-280 32 -19 75 -44 157 -89 33 -19 62 -36 65 -39 5 -6 17 -13 89 -53 20 -11
43 -26 51 -33 13 -12 15 -179 13 -1402 -1 -763 -2 -1401 -2 -1416 -1 -43 -55
-53 -91 -17 -5 5 -192 97 -250 123 -19 8 -60 26 -90 40 -69 31 -245 97 -285
107 -16 4 -70 20 -119 34 -49 14 -101 28 -115 31 -14 3 -37 7 -51 11 -40 9
-102 22 -140 28 -19 3 -44 7 -55 10 -18 3 -95 15 -150 22 -11 1 -58 5 -105 9
-47 3 -92 8 -100 10 -13 4 -88 126 -170 274 -14 25 -49 86 -78 134 -28 48 -52
90 -52 93 0 2 -12 23 -27 47 -15 23 -35 56 -44 72 -9 17 -26 46 -38 65 -11 19
-29 51 -38 70 -10 19 -21 37 -25 38 -5 2 -8 7 -8 11 0 5 -27 53 -60 109 -33
55 -60 105 -60 111 0 6 -4 11 -10 11 -5 0 -10 4 -10 9 0 4 -82 150 -182 322
-99 173 -215 373 -256 444 -41 72 -81 141 -90 155 -9 14 -15 28 -14 33 1 4 -2
7 -8 7 -5 0 -10 4 -10 9 0 5 -16 36 -36 69 -37 64 -64 80 -87 53 -16 -19 -104
-186 -350 -671 -96 -190 -221 -435 -277 -545 -56 -110 -152 -297 -212 -415
-687 -1341 -639 -1244 -623 -1267 13 -19 19 -20 51 -11 20 5 44 11 53 13 9 2
88 24 176 50 88 25 169 47 180 50 11 3 61 16 110 30 50 14 99 27 110 29 11 3
49 12 85 21 36 9 76 18 90 21 14 3 41 9 60 14 19 5 46 11 60 14 14 2 59 12
100 21 41 9 85 18 98 21 12 2 34 6 50 9 27 6 244 42 292 50 37 5 118 15 175
21 28 3 68 7 90 9 22 3 77 5 123 5 48 1 82 5 82 11 0 18 -86 123 -134 165
-181 157 -404 204 -676 142 -25 -5 -55 -12 -67 -14 -23 -4 -212 -50 -248 -60
-11 -3 -39 -8 -61 -11 -70 -9 -67 15 17 180 40 78 89 174 108 212 19 39 38 72
43 73 4 2 8 11 8 21 0 9 4 21 9 26 5 6 60 111 123 235 64 124 166 324 229 445
62 121 119 232 127 248 7 15 22 32 33 37 16 9 24 6 44 -16 14 -15 25 -30 25
-34 0 -5 18 -38 40 -74 22 -36 40 -68 40 -70 0 -3 14 -25 30 -49 17 -25 30
-49 30 -54 0 -4 11 -24 23 -43 13 -19 35 -55 49 -80 44 -79 64 -113 138 -240
101 -173 110 -190 134 -235 12 -22 24 -42 27 -45 3 -3 19 -30 36 -60 31 -56
195 -343 213 -370 5 -8 45 -78 89 -155 108 -188 97 -177 167 -181 176 -10 243
-14 279 -19 22 -2 64 -7 94 -11 53 -6 76 -9 129 -19 15 -3 41 -8 58 -10 17 -2
60 -11 95 -20 68 -17 67 -17 144 -36 28 -6 56 -16 63 -22 6 -5 12 -7 12 -3 0
6 190 -60 254 -88 20 -9 53 -23 74 -32 198 -86 468 -243 568 -331 18 -16 45
-39 60 -52 16 -13 60 -52 99 -85 38 -34 83 -72 99 -86 16 -14 34 -30 40 -36
14 -14 46 -9 57 8 5 7 9 878 9 1935 l0 1922 -22 21 c-12 11 -26 20 -30 20 -5
0 -25 11 -46 24 -20 12 -86 52 -147 87 -60 35 -123 72 -140 82 -16 10 -38 20
-47 23 -10 4 -18 10 -18 15 0 5 -4 9 -9 9 -9 0 -449 253 -468 269 -7 6 -15 11
-18 11 -3 0 -35 18 -71 40 -36 22 -67 40 -69 40 -5 0 -430 249 -442 260 -7 5
-15 10 -18 10 -3 0 -83 45 -176 100 -93 55 -172 100 -175 100 -3 0 -17 9 -32
19 -25 18 -895 525 -992 579 -25 13 -53 31 -62 40 -10 8 -18 11 -18 7 0 -4 -8
-1 -17 7 -23 19 -198 118 -209 118 -5 0 -90 -47 -189 -105z"/>
<path d="M4438 925 c-2 -2 -42 -6 -90 -10 -49 -3 -96 -8 -105 -9 -10 -2 -40
-7 -68 -10 -78 -11 -105 -16 -185 -33 -41 -9 -83 -16 -92 -17 -10 0 -18 -3
-18 -6 0 -4 -6 -7 -12 -7 -31 -1 -234 -60 -294 -84 -16 -7 -31 -13 -34 -14
-26 -7 -78 -27 -215 -85 -202 -84 -424 -161 -513 -176 -15 -3 -36 -8 -47 -11
-23 -8 -28 -9 -70 -17 -16 -3 -55 -10 -85 -16 -62 -13 -154 -23 -217 -24 -24
-1 -43 -3 -43 -6 0 -6 -270 -3 -370 4 -163 12 -349 41 -466 72 -33 9 -64 17
-71 18 -7 1 -16 5 -19 9 -4 4 -18 7 -30 7 -13 0 -26 5 -29 10 -3 6 -15 10 -26
10 -10 0 -27 4 -37 10 -41 22 -194 91 -196 88 -58 -96 -55 -245 8 -351 43 -74
134 -143 214 -162 9 -3 44 -12 77 -20 84 -22 160 -38 233 -50 17 -3 45 -7 60
-10 16 -3 44 -7 63 -9 19 -2 63 -8 99 -12 138 -17 635 -9 755 12 36 6 224 44
245 50 8 2 42 10 75 19 33 8 68 17 78 20 43 10 213 66 229 75 10 6 22 10 27
10 8 0 231 90 386 155 34 14 181 63 211 70 10 2 53 13 94 24 41 11 91 22 110
25 19 2 47 7 61 11 14 3 41 8 60 10 19 2 34 4 34 5 0 12 211 25 410 25 256 0
368 -10 520 -48 11 -3 42 -10 69 -17 71 -16 179 -51 194 -63 6 -5 12 -7 12 -4
0 8 146 -55 255 -110 96 -48 264 -154 332 -209 l41 -34 31 47 c36 54 61 130
61 184 0 102 -49 211 -124 277 -36 32 -194 118 -208 114 -5 -1 -8 3 -8 8 0 5
-3 9 -7 8 -5 -2 -53 16 -108 39 -88 38 -296 109 -343 118 -9 1 -35 8 -58 14
-44 12 -130 29 -179 36 -16 3 -39 7 -50 9 -12 2 -48 7 -80 11 -33 4 -71 9 -85
12 -26 5 -457 12 -462 8z"/>
</g>
</svg>
