<svg xmlns="http://www.w3.org/2000/svg" width="40.363" height="45.103" viewBox="0 0 40.363 45.103">
  <g id="Group_45" data-name="Group 45" transform="translate(-17.807 1358.026)">
    <path id="Path_21" data-name="Path 21" d="M32.831-1279.214a19.414,19.414,0,0,1-5.481-.737,2.227,2.227,0,0,1-1.307-3.24h0c2.891,1.66,7.135,1.618,8.973,1.363a20.349,20.349,0,0,0,5.175-1.572l.421-.177a19.944,19.944,0,0,1,7.278-1.459,17.667,17.667,0,0,1,8.626,2.131,2.235,2.235,0,0,1,.546,3.424h0a13.939,13.939,0,0,0-9.172-3.061,17.3,17.3,0,0,0-6.319,1.267l-.413.173a22.78,22.78,0,0,1-5.774,1.739A19.957,19.957,0,0,1,32.831-1279.214Z" transform="translate(-3.667 -33.709)" fill="orange"/>
    <path id="Path_22" data-name="Path 22" d="M58.17-1346.144v23.983a.242.242,0,0,1-.4.183l-.671-.582-.993-.864a10.759,10.759,0,0,0-1.226-.91q-.274-.181-.574-.349c-.208-.12-.424-.241-.648-.353a18.664,18.664,0,0,0-6.25-2.053,21.21,21.21,0,0,0-2.331-.212l-.548-.024a.243.243,0,0,1-.2-.121l-6.047-10.481a.243.243,0,0,0-.426.01l-4.544,8.858a.242.242,0,0,0,.279.345c.623-.17,1.727-.454,2.972-.686a4.329,4.329,0,0,1,4.55,2.1h0c-3.763-.067-10.322,1.837-12.248,2.423a.242.242,0,0,1-.285-.343l6.973-13.645s0-.008-.009-.012l.835-1.629.574-1.114.769-1.506a.243.243,0,0,1,.427-.011l7.2,12.466.463.8a.244.244,0,0,0,.193.12c.312.023.614.049.91.078a20.535,20.535,0,0,1,5.473,1.313c.166.067.333.134.5.208.648.27,1.275.573,1.907.893.029.017.058.029.087.046q.221.114.435.232a.243.243,0,0,0,.363-.21v-17.527a.243.243,0,0,0-.12-.21l-.678-.4L38.084-1355.1a.243.243,0,0,0-.245,0l-1.519.889-15.9,9.292a.242.242,0,0,0-.121.209v20.843a.249.249,0,0,0,.084.186A11.067,11.067,0,0,0,26.6-1321.1a18.087,18.087,0,0,0,3.906-.062,30.916,30.916,0,0,0,6.092-1.641l.527-.183a23.624,23.624,0,0,1,4.958-1.28c.166-.017.333-.033.5-.046a18.041,18.041,0,0,1,9.781,1.795c.145.075.318.172.506.284a2.239,2.239,0,0,1,.53,3.406h0a8.694,8.694,0,0,0-.785-.619,10.736,10.736,0,0,0-1.263-.785,15.586,15.586,0,0,0-8.773-1.579c-.075,0-.15.012-.224.021a21.782,21.782,0,0,0-4.417,1.16l-.515.179a32.808,32.808,0,0,1-6.657,1.77,21.76,21.76,0,0,1-4.231.087,13.377,13.377,0,0,1-8.195-3.59c-.05-.05-.1-.1-.154-.15l-.3-.294a.242.242,0,0,1-.073-.174v-23.345a.242.242,0,0,1,.121-.209L36.32-1357.1l1.519-.888a.242.242,0,0,1,.245,0l19.966,11.64A.243.243,0,0,1,58.17-1346.144Z" transform="translate(0 0)" fill="orange"/>
  </g>
</svg>
